<?xml version="1.0" encoding="UTF-8"?>
<svg width="388px" height="132px" viewBox="0 0 388 132" version="1.1" xmlns="http://www.w3.org/2000/svg" xmlns:xlink="http://www.w3.org/1999/xlink">
    <!-- Generator: Sketch 51.1 (57501) - http://www.bohemiancoding.com/sketch -->
    <title>One Kings Lane</title>
    <defs>
        <path d="M0,83.4015636 C0,74.8898409 5.93291532,68.8746491 11.3412741,68.8746491 C16.7496329,68.8746491 22.6011515,74.8446139 22.6011515,83.2387463 C22.6011515,91.6328787 16.993823,97.7656608 11.2598774,97.7656608 C5.85151861,97.7656608 0,91.8771046 0,83.4015636 Z M18.6398452,83.4015636 C18.6398452,75.9391075 16.9033822,69.5168726 11.2598774,69.5168726 C5.61637258,69.5168726 3.97939442,75.7762903 3.97939442,83.2387463 C3.97939442,90.7012024 5.71585744,97.1234373 11.3593623,97.1234373 C17.0028671,97.1234373 18.6398452,90.8640196 18.6398452,83.4015636 Z M34.9372742,73.5601669 L34.9372742,91.5605155 C34.9372742,95.5585829 35.7874175,96.5264408 38.8533601,96.5264408 L39.0161535,96.5264408 L39.0161535,97.1324827 L30.0172956,97.1324827 L30.0172956,96.5264408 L30.5418522,96.5264408 C33.2008112,96.5264408 34.0961749,95.5585829 34.0961749,91.5605155 L34.0961749,72.3028562 C33.0024063,70.9907602 31.4070797,70.1995463 29.7007529,70.1229145 L29.7007529,69.5168726 L36.1582248,69.5168726 L52.9440339,92.3203292 L52.9440339,75.1340668 C52.9440339,71.1359994 52.0938906,70.1319599 49.0279481,70.1319599 L48.8651547,70.1319599 L48.8651547,69.525918 L57.8640125,69.525918 L57.8640125,70.1319599 L57.339456,70.1319599 C54.680497,70.1319599 53.7218247,71.1450448 53.7218247,75.1340668 L53.7218247,97.6932976 L52.7269761,97.6932976 L34.9372742,73.5601669 Z M65.2801566,96.5173954 L66.4468427,96.5173954 C68.3008788,96.5173954 68.9882287,95.9927621 68.9882287,94.0570463 L68.9882287,72.5832636 C68.9882287,70.6475477 68.3008788,70.1229145 66.4468427,70.1229145 L65.2801566,70.1229145 L65.2801566,69.5168726 L85.6564649,69.5168726 L86.0634484,79.466814 L85.5388919,79.466814 C84.6887485,73.3702135 83.241696,70.1410053 77.4715741,70.1410053 L74.9301881,70.1410053 C73.0761521,70.1410053 72.3435817,70.6294569 72.3435817,72.5651728 L72.3435817,82.5151142 L74.4056316,82.5151142 C78.3578938,82.5151142 79.4884035,80.0547651 79.5336239,76.7079666 L80.0581805,76.7079666 L80.0581805,89.2539382 L79.5336239,89.2539382 C79.5336239,85.8619127 78.4031141,83.1211561 74.4056316,83.1211561 L72.3435817,83.1211561 L72.3435817,94.1384549 C72.3435817,96.0741708 73.067108,96.5626224 74.9301881,96.5626224 L78.2403207,96.5626224 C83.9290459,96.5626224 85.1771287,92.6097821 86.2714622,86.3955914 L86.7960187,86.3955914 L86.1086688,97.1686643 L65.3072889,97.1686643 L65.2801566,96.5173954 Z M109.79511,96.5173954 L110.961796,96.5173954 C112.815832,96.5173954 113.503182,96.0289438 113.503182,94.0932279 L113.503182,72.501855 C113.503182,70.5661391 112.815832,70.0776874 110.961796,70.0776874 L109.79511,70.0776874 L109.79511,69.4716456 L120.566607,69.4716456 L120.566607,70.0776874 L119.436097,70.0776874 C117.582061,70.0776874 116.849491,70.5661391 116.849491,72.501855 L116.849491,85.6176869 L125.649379,75.9300621 C127.910398,73.4244859 128.073192,72.7822624 128.073192,71.9319947 C128.073192,70.6837293 126.779889,70.0776874 124.962029,70.0776874 L124.555045,70.0776874 L124.555045,69.4716456 L134.440223,69.4716456 L134.440223,70.0776874 C132.143027,70.0776874 131.13009,70.9822276 129.276054,73.0264883 L122.574392,80.2628093 L131.81744,93.9394561 C132.94795,95.5947645 133.626256,96.4450322 135.435071,96.4450322 L135.923452,96.4450322 L135.923452,97.0510741 L125.631291,97.0510741 L125.631291,96.4450322 L126.535698,96.4450322 C127.783781,96.4450322 128.344514,96.0832162 128.344514,95.3595841 C128.293615,94.8705431 128.098428,94.4076942 127.783781,94.0299101 L120.24102,82.8136125 L116.849491,86.567454 L116.849491,94.0299101 C116.849491,95.9656259 117.573017,96.4540776 119.436097,96.4540776 L120.566607,96.4540776 L120.566607,97.0601195 L109.79511,97.0601195 L109.79511,96.5173954 Z M143.34864,96.5173954 L144.641943,96.5173954 C146.495979,96.5173954 147.183329,96.0289438 147.183329,94.0932279 L147.183329,72.501855 C147.183329,70.5661391 146.495979,70.0776874 144.641943,70.0776874 L143.34864,70.0776874 L143.34864,69.4716456 L154.400503,69.4716456 L154.400503,70.0776874 L153.152421,70.0776874 C151.343605,70.0776874 150.611035,70.5661391 150.611035,72.501855 L150.611035,94.0480009 C150.611035,95.9837167 151.334561,96.4721684 153.152421,96.4721684 L154.400503,96.4721684 L154.400503,97.0782103 L143.34864,97.0782103 L143.34864,96.5173954 Z M167.957577,73.5601669 L167.957577,91.5605155 C167.957577,95.5585829 168.80772,96.5264408 171.873663,96.5264408 L172.036456,96.5264408 L172.036456,97.1324827 L163.037598,97.1324827 L163.037598,96.5264408 L163.562155,96.5264408 C166.221114,96.5264408 167.116477,95.5585829 167.116477,91.5605155 L167.116477,72.3028562 C166.022709,70.9907602 164.427382,70.1995463 162.721055,70.1229145 L162.721055,69.5168726 L169.178527,69.5168726 L185.964336,92.3203292 L185.964336,75.1340668 C185.964336,71.1359994 185.114193,70.1319599 182.048251,70.1319599 L181.885457,70.1319599 L181.885457,69.525918 L190.884315,69.525918 L190.884315,70.1319599 L190.395935,70.1319599 C187.736976,70.1319599 186.778304,71.1450448 186.778304,75.1340668 L186.778304,97.6932976 L185.765367,97.6932976 L167.957577,73.5601669 Z M197.613109,83.4829722 C197.613109,74.7270237 203.464628,69.1188749 208.872987,69.1188749 C210.782117,69.1802166 212.626136,69.8276127 214.154728,70.9731822 C214.608414,71.3143148 215.1608,71.4984703 215.728398,71.4978155 C216.334351,71.4978155 216.976481,70.7741833 217.302068,68.9922393 L217.745227,68.9922393 L218.070814,79.647722 L217.419641,79.647722 C215.728398,73.3159411 212.454442,69.7610984 208.701149,69.7610984 C203.781171,69.7610984 201.520151,76.3823321 201.520151,83.3292003 C201.520151,90.2760685 204.142934,96.7706667 209.270926,96.7706667 C210.73327,96.843107 212.160606,96.3083105 213.215412,95.2927401 C214.270218,94.2771698 214.858837,92.8709988 214.842078,91.4067437 L214.842078,88.0599452 C214.842078,86.0790023 214.118552,85.5995961 212.300692,85.5995961 L210.971213,85.5995961 L210.971213,84.9935542 L220.693597,84.9935542 L220.693597,85.5995961 L220.41323,85.5995961 C218.604415,85.5995961 217.871844,86.0880477 217.871844,88.0599452 L217.871844,97.5033442 L217.419641,97.5033442 C216.895084,95.8932627 216.090161,95.1244036 215.402811,95.1244036 C214.894581,95.1721823 214.407931,95.3531427 213.991935,95.6490369 C212.336869,96.7797121 211.206359,97.5033442 208.827766,97.5033442 C203.301834,97.4852534 197.613109,91.7956959 197.613109,83.4829722 Z M233.870819,95.7937633 C233.294487,95.3980064 232.629959,95.1495485 231.935386,95.0701312 C231.293257,95.0701312 230.7687,95.8751719 230.397893,97.5304804 L229.873336,97.5304804 L229.59297,86.5945902 L230.198923,86.5945902 C231.618843,94.2108181 236.737792,96.9244385 240.771451,96.9244385 C242.241935,96.9936592 243.672661,96.4352205 244.707548,95.3881072 C245.742434,94.3409939 246.284159,92.903678 246.197897,91.4338799 C246.197897,87.761447 243.014382,86.3051374 238.81793,85.0206904 C234.621477,83.7362434 229.864292,82.4337056 229.864292,76.5903764 C229.820264,74.6184673 230.575979,72.7126645 231.959355,71.3069352 C233.342731,69.9012058 235.236013,69.1152081 237.208084,69.1279203 C239.225472,69.0963224 241.196766,69.7323166 242.815412,70.9370006 C243.25907,71.3413042 243.826446,71.5835899 244.425258,71.6244511 C245.067388,71.6244511 245.510548,70.9822276 246.035104,69.1641019 L246.559661,69.1641019 L246.840027,80.0185835 L246.234074,80.0185835 C244.660404,72.4294918 240.626745,69.7249168 237.280436,69.7249168 C235.85488,69.6818738 234.474797,70.2293539 233.466317,71.2379812 C232.457838,72.2466085 231.910438,73.6268933 231.953474,75.0526582 C231.953474,77.9200504 233.002587,79.5753588 239.188737,81.3844391 C244.958859,83.0397475 248.060978,84.9392818 248.060978,89.8961617 C248.18429,91.9293432 247.445113,93.9203499 246.024938,95.3803321 C244.604762,96.8403142 242.635119,97.6340528 240.599613,97.566662 C238.237701,97.5947365 235.912338,96.9820513 233.870819,95.7937633 Z M270.182793,96.5173954 L271.349479,96.5173954 C273.203515,96.5173954 273.890865,96.0289438 273.890865,94.0932279 L273.890865,72.501855 C273.890865,70.5661391 273.203515,70.0776874 271.349479,70.0776874 L270.182793,70.0776874 L270.182793,69.4716456 L281.632596,69.4716456 L281.632596,70.0776874 L279.82378,70.0776874 C277.969744,70.0776874 277.237174,70.5661391 277.237174,72.501855 L277.237174,94.0480009 C277.237174,95.9837167 277.9607,96.4721684 279.82378,96.4721684 L281.632596,96.4721684 C288.171465,96.4721684 289.093961,92.8540079 289.699914,86.3051374 L290.342043,86.3051374 L289.654693,97.0782103 L270.182793,97.0782103 L270.182793,96.5173954 Z M297.911937,96.5173954 C300.172956,96.191761 300.896483,94.862087 301.945596,91.9946948 L310.53747,68.7118319 L311.441878,68.7118319 L320.522132,93.6500032 C321.372276,95.9475351 322.376168,96.3636236 324.139764,96.5173954 L324.139764,97.1234373 L313.431575,97.1234373 L313.431575,96.5173954 L314.598261,96.5173954 C316.135754,96.5173954 316.976854,95.8299449 316.976854,95.0249042 C316.890293,93.9257234 316.618133,92.8491584 316.171931,91.840923 L314.797231,88.0508998 L304.3061,88.0508998 L303.401692,90.511249 C302.875543,91.7671563 302.569602,93.104315 302.497284,94.4640893 C302.497284,95.7937633 303.266031,96.5173954 304.758304,96.5173954 L305.527051,96.5173954 L305.527051,97.1234373 L297.911937,97.1234373 L297.911937,96.5173954 Z M314.616349,87.4719941 L309.569754,73.1893055 L304.523158,87.4719941 L314.616349,87.4719941 Z M336.1503,73.5601669 L336.1503,91.5605155 C336.1503,95.5585829 337.000443,96.5264408 340.066385,96.5264408 L340.229179,96.5264408 L340.229179,97.1324827 L331.230321,97.1324827 L331.230321,96.5264408 L331.754878,96.5264408 C334.413837,96.5264408 335.3092,95.5585829 335.3092,91.5605155 L335.3092,72.3028562 C334.215432,70.9907602 332.620105,70.1995463 330.913778,70.1229145 L330.913778,69.5168726 L337.37125,69.5168726 L354.157059,92.3203292 L354.157059,75.1340668 C354.157059,71.1359994 353.306916,70.1319599 350.240973,70.1319599 L350.07818,70.1319599 L350.07818,69.525918 L359.077038,69.525918 L359.077038,70.1319599 L358.588658,70.1319599 C355.929699,70.1319599 354.971026,71.1450448 354.971026,75.1340668 L354.971026,97.6932976 L353.985222,97.6932976 L336.1503,73.5601669 Z M366.484138,96.5173954 L367.650824,96.5173954 C369.50486,96.5173954 370.19221,95.9927621 370.19221,94.0570463 L370.19221,72.5832636 C370.19221,70.6475477 369.50486,70.1229145 367.650824,70.1229145 L366.484138,70.1229145 L366.484138,69.5168726 L386.860446,69.5168726 L387.26743,79.466814 L386.742873,79.466814 C385.89273,73.3702135 384.445677,70.1410053 378.675555,70.1410053 L376.134169,70.1410053 C374.280133,70.1410053 373.547563,70.6294569 373.547563,72.5651728 L373.547563,82.5151142 L375.609613,82.5151142 C379.561875,82.5151142 380.692385,80.0547651 380.737605,76.7079666 L381.262162,76.7079666 L381.262162,89.2539382 L380.737605,89.2539382 C380.737605,85.8619127 379.607095,83.1211561 375.609613,83.1211561 L373.547563,83.1211561 L373.547563,94.1384549 C373.547563,96.0741708 374.271089,96.5626224 376.134169,96.5626224 L379.444302,96.5626224 C385.133027,96.5626224 386.38111,92.6097821 387.475443,86.3955914 L388,86.3955914 L387.31265,97.1686643 L366.51127,97.1686643 L366.484138,96.5173954 Z M150.122654,131.830642 L150.122654,119.791213 L151.316473,119.791213 L156.896669,127.552167 C157.210197,127.998407 157.511666,128.459723 157.801077,128.936114 L157.855341,128.936114 L157.855341,119.791213 L159.202909,119.791213 L159.202909,131.830642 L158.000047,131.830642 L152.41985,124.060642 C152.076175,123.56013 151.774706,123.098815 151.515443,122.676696 L151.452134,122.676696 L151.452134,131.821597 L150.122654,131.830642 Z M163.634507,131.830642 L163.634507,119.791213 L170.173376,119.791213 L169.992494,121.012342 L165.298618,121.012342 L165.298618,124.847592 L169.486026,124.847592 L169.486026,126.068721 L165.28053,126.068721 L165.28053,130.591422 L170.236684,130.591422 L170.236684,131.812551 L163.634507,131.830642 Z M172.868511,119.791213 L174.677327,119.791213 L176.65798,126.647627 C176.838862,127.292866 177.022758,128.05871 177.209669,128.945159 C177.366433,128.245648 177.559373,127.488849 177.78849,126.674763 L179.796275,119.818349 L181.243328,119.818349 L183.151628,126.783308 C183.362657,127.512971 183.57067,128.272784 183.77567,129.062749 L184.354491,126.710945 L186.163306,119.782168 L187.574182,119.782168 L184.06508,131.821597 L182.88935,131.821597 L180.673551,124.169187 C180.516787,123.674705 180.372081,123.177208 180.239435,122.676696 L180.320832,122.676696 C180.188185,123.22545 180.061568,123.725963 179.94098,124.178233 L177.679961,131.785415 L176.504231,131.785415 L172.868511,119.791213 Z M194.393417,119.791213 L196.265542,119.791213 L198.363768,123.979234 C198.623031,124.491806 198.909427,125.094833 199.222955,125.788314 C199.482219,125.233529 199.783688,124.630503 200.127363,123.979234 L202.297942,119.809304 L203.699774,119.809304 L199.901261,127.15417 L199.901261,131.857778 L198.237151,131.857778 L198.237151,127.335078 L194.393417,119.791213 Z M206.874245,130.392423 C205.198824,127.554954 205.198824,124.030719 206.874245,121.19325 C207.79851,120.16977 209.112939,119.585673 210.491877,119.585673 C211.870814,119.585673 213.185244,120.16977 214.109508,121.19325 C215.78493,124.030719 215.78493,127.554954 214.109508,130.392423 C213.185244,131.415903 211.870814,132 210.491877,132 C209.112939,132 207.79851,131.415903 206.874245,130.392423 Z M208.14946,121.953064 C207.075274,124.40019 207.075274,127.185484 208.14946,129.63261 C208.710747,130.36633 209.581738,130.796679 210.505443,130.796679 C211.429148,130.796679 212.300139,130.36633 212.861425,129.63261 C213.935611,127.185484 213.935611,124.40019 212.861425,121.953064 C212.300139,121.219343 211.429148,120.788995 210.505443,120.788995 C209.581738,120.788995 208.710747,121.219343 208.14946,121.953064 Z M218.920958,131.830642 L218.920958,119.791213 L221.634181,119.791213 C223.274174,119.791213 224.431816,120.146999 225.107107,120.85857 C225.641087,121.490021 225.910084,122.303612 225.857766,123.128966 C225.917956,124.042823 225.58951,124.939612 224.953358,125.598361 C224.279997,126.216689 223.38857,126.542074 222.47528,126.502901 L226.508939,131.857778 L224.528286,131.857778 L220.585068,126.48481 L220.585068,131.857778 L218.920958,131.830642 Z M220.585068,125.345089 L221.670357,125.345089 C222.363853,125.409607 223.058765,125.237448 223.641966,124.856638 C224.080374,124.390731 224.29201,123.755729 224.220787,123.119921 C224.283308,122.514956 224.070811,121.9139 223.641966,121.482703 C223.057076,121.106378 222.362711,120.93754 221.670357,121.003297 L220.585068,121.003297 L220.585068,125.345089 Z M229.846204,131.830642 L229.846204,119.791213 L231.510314,119.791213 L231.510314,124.856638 L236.032354,119.791213 L237.741684,119.791213 L232.785529,125.317953 L237.922566,131.839687 L235.905736,131.839687 L231.555535,126.186312 L231.555535,131.839687 L229.846204,131.830642 Z M217.510081,19.622439 L218.577283,23.6295518 C218.588705,23.6818302 218.55674,23.7337815 218.50493,23.747142 L217.871844,23.9099593 C217.819574,23.9213834 217.76763,23.8894134 217.754271,23.837596 L216.804643,20.2737079 L217.510081,19.622439 Z M197.74877,2.78894724 L197.712594,2.73467483 C197.640241,2.61708461 197.884432,2.66231162 197.938696,2.66231162 C200.14441,2.99636656 202.395387,2.8700963 204.549917,2.29145017 C204.778531,2.16564249 205.064305,2.22038386 205.230261,2.42177347 C205.396217,2.62316308 205.395361,2.91417221 205.228223,3.11458169 C204.184914,3.25145423 203.133002,3.31191781 202.080884,3.29548971 L201.565371,3.29548971 C201.494025,3.28581187 201.422336,3.31069712 201.372326,3.36250102 C201.322316,3.41430491 201.299964,3.48683332 201.312137,3.55780635 L201.854782,5.97292849 C200.460254,5.97448265 199.09025,5.60618176 197.884432,4.90557114 C197.889093,4.85917716 197.928252,4.82392886 197.974872,4.82416253 C198.783511,4.87478233 199.59055,4.70271395 200.308245,4.32666546 C199.381206,3.9485659 198.517927,3.42991254 197.74877,2.78894724 Z M174.912473,37.5504244 C175.201883,37.9574675 177.10114,41.6479912 177.381506,42.1183521 C177.526212,42.3987595 177.14636,42.905302 177.055919,43.0228922 C176.764124,43.3530879 176.523304,43.7250418 176.341437,44.1264311 C176.194436,44.5219251 176.147824,44.9477136 176.205776,45.3656511 C176.226706,45.5635187 176.272279,45.7579944 176.341437,45.9445568 C176.44083,46.0388099 176.531629,46.1417312 176.61276,46.2521004 C176.721289,46.3787361 176.884082,46.7948245 176.721289,46.9305055 L173.890492,46.9305055 C173.655698,46.8447049 173.428753,46.7387816 173.212186,46.6139165 C172.767021,46.3417898 172.340958,46.0395732 171.936971,45.7093764 C171.566164,45.3113787 172.036456,44.9947897 172.144985,44.6510644 C172.393106,43.7052127 172.713609,42.7798519 173.103657,41.8831716 C173.519685,40.9876769 174.568798,38.5001915 174.912473,37.5504244 Z M175.066222,46.5958257 L175.093354,46.6048711 C175.147619,46.6048711 175.138575,46.5415533 175.138575,46.5415533 C175.138575,46.5415533 174.99387,46.2159188 174.776812,46.2159188 C174.559754,46.2159188 174.415049,46.5415533 174.415049,46.5415533 C174.415049,46.5415533 174.369828,46.5958257 174.415049,46.5958257 L175.066222,46.5958257 Z M176.278129,46.5234625 L176.314305,46.5325079 C176.314305,46.5325079 176.088203,46.1164194 175.825925,46.1164194 C175.563647,46.1164194 175.382765,46.5234625 175.382765,46.5234625 C175.382765,46.5325079 175.373721,46.5958257 175.427985,46.5958257 L176.232908,46.5958257 C176.278129,46.5867803 176.278129,46.5234625 176.278129,46.5234625 Z M211.993194,1.34168303 C211.672149,1.17108296 211.497031,0.813497531 211.559078,0.455233706 C211.632963,0.248562488 211.795597,0.085905388 212.002238,0.0120090424 L212.110767,0.0120090424 C212.215674,-0.00400301414 212.322402,-0.00400301414 212.427309,0.0120090424 L212.499662,0.0120090424 L212.626279,0.0120090424 L212.689588,0.0120090424 L212.807161,0.0843722527 L212.861425,0.0843722527 C213.020489,0.242304534 213.109947,0.457200843 213.109947,0.681368738 C213.109947,0.905536633 213.020489,1.12043294 212.861425,1.27836522 L214.968695,9.41922639 C214.691905,9.48054539 214.424337,9.57785722 214.172816,9.70867923 L211.993194,1.34168303 Z M203.998228,34.927258 C204.106757,35.1805293 204.37808,35.9584338 204.396168,36.1393418 C204.498631,36.9284677 204.305323,37.727591 203.853523,38.3826013 C203.192835,38.9744812 202.467781,39.4902859 201.691989,39.9203195 C200.798876,40.4199782 200.009851,41.0862945 199.36766,41.8831716 C199.159647,42.1273975 198.698399,42.6339399 198.3909,42.5253951 C198.322661,42.5002171 198.265174,42.4523038 198.228107,42.3897141 C198.029137,42.0459888 197.576933,39.7213207 197.323699,38.7715536 C197.133773,38.0660123 197.730682,37.857968 198.137666,37.7856048 C198.430401,37.7593069 198.703606,37.6275066 198.906412,37.4147434 C199.286264,37.0710181 199.693247,36.7544291 200.100231,36.4197492 C199.596105,36.0841534 199.126527,35.6993455 198.698399,35.2709833 L199.096338,34.3664431 L200.244936,31.8518216 L200.74236,30.757328 L200.878021,30.4497844 C201.795092,31.3680338 202.616307,32.3772768 203.328967,33.461903 C203.577833,33.9381611 203.801235,34.4273016 203.998228,34.927258 Z M198.282371,40.6168154 L198.246195,40.6349062 C198.246195,40.6349062 198.526561,40.4087712 198.463253,40.200727 C198.399944,39.9926828 198.047225,39.9384103 198.047225,39.9384103 C198.047225,39.9384103 198.047225,39.9474557 198.047225,39.9926828 L198.219062,40.6168154 C198.228107,40.6168154 198.282371,40.6168154 198.282371,40.6168154 Z M198.617002,41.7474906 C198.617002,41.7474906 198.960677,41.5032648 198.888324,41.2409481 C198.815972,40.9786315 198.372812,40.9153137 198.372812,40.9153137 C198.363768,40.9153137 198.318547,40.9243591 198.318547,40.9786315 L198.535605,41.7474906 C198.553693,41.7474906 198.617002,41.7474906 198.617002,41.7474906 Z M218.278828,18.0304484 C218.088902,18.2294472 217.745227,18.5822179 217.473905,18.7721713 L216.768467,19.4234402 C216.524277,19.6495752 216.19869,19.9209373 216.19869,19.9209373 C214.236125,21.5129279 210.41048,20.6083878 210.41048,20.6083878 C210.021585,20.5722062 208.511224,20.2827533 208.212769,20.2827533 C207.889502,20.2636979 207.59785,20.4758391 207.516375,20.7892958 C207.367123,21.0081745 207.141217,21.1631045 206.883289,21.2234751 C206.313513,21.3862923 205.680427,21.4405647 205.074474,21.6214727 C204.476173,21.8507986 203.985633,22.2962224 203.699774,22.8697381 C202.80441,24.3170023 201.900002,25.7552211 201.049859,27.2296215 C200.810208,27.639048 200.679434,28.1030548 200.670008,28.5773863 C200.702271,28.989981 200.653103,29.4048941 200.525302,29.7985155 C200.407729,30.1060591 198.381856,34.5111696 198.237151,34.8187132 C197.775903,35.8317982 195.88569,39.8298655 195.768117,40.0831368 L194.981282,42.5887129 C194.61946,43.4992054 194.642304,44.5175316 195.044591,45.4108781 C195.650544,46.8762331 195.135032,46.7767337 194.999371,46.7767337 L190.477332,46.7767337 C190.133657,46.7676883 189.988951,46.5686895 190.133657,46.2068734 C190.278362,45.8450574 190.386891,45.3566057 190.558728,45.0128805 C191.213242,43.6291735 191.634936,42.1469162 191.806811,40.6258608 C192.014825,38.9795978 192.277103,37.3514256 192.494161,35.7051625 C192.593646,34.972485 192.8921,32.5844991 192.8921,32.4849997 C192.955409,31.9151394 192.620778,31.7794584 192.457985,32.2860009 C192.385632,32.5573629 191.653062,35.1443477 191.481224,35.6961171 C190.576816,36.3112044 185.702058,36.3654768 184.245962,36.1574326 C184.176162,35.6835989 184.176162,35.2020929 184.245962,34.7282592 C184.291182,34.2578983 183.965595,34.0046271 183.712361,34.7282592 C183.676185,34.8006224 183.205893,36.1122056 183.124496,36.3202498 C182.898394,36.8991555 182.826041,37.2428808 182.599939,37.8036956 C182.329825,38.8236576 182.253135,39.8852002 182.373837,40.9334045 C182.490133,42.1094751 182.70186,43.2741398 183.006923,44.415884 C183.197508,44.8216353 183.434215,45.2040655 183.712361,45.5556045 C183.865521,45.7693402 183.987341,46.0038783 184.074124,46.2521004 C184.191697,46.5777349 184.255006,46.7948245 183.802802,46.7948245 C183.350598,46.7948245 180.637374,46.7948245 179.732967,46.7948245 C179.081793,46.8038699 179.027528,46.6500981 179.081793,45.9807384 C179.256434,44.7536231 179.000771,43.5038864 178.358267,42.4439865 C178.159297,42.1364429 173.61917,33.2990858 173.347847,32.6930439 C173.112701,32.4216819 172.235426,32.6297261 172.0455,32.6930439 C171.310474,32.9395467 170.506421,32.8727384 169.822142,32.5083066 C169.137863,32.1438748 168.633639,31.5139237 168.427869,30.7663734 L168.427869,30.6940102 C168.23728,30.1344117 168.209059,29.532269 168.346472,28.9572932 C168.489942,28.5241495 168.687456,28.1108305 168.934337,27.7271186 C168.797903,27.2319349 168.83623,26.7048569 169.042866,26.2346274 C169.129903,26.0620026 169.19667,25.8798829 169.241836,25.6919033 C169.235083,25.4667743 169.207838,25.2427286 169.160439,25.0225436 C169.139677,24.9578357 169.139677,24.8882527 169.160439,24.8235448 C169.18716,24.7734362 169.239319,24.7421362 169.2961,24.7421362 C169.352882,24.7421362 169.405041,24.7734362 169.431761,24.8235448 C169.485171,24.8986353 169.527792,24.980844 169.558379,25.0677706 C169.584151,25.1290299 169.617579,25.1867771 169.657863,25.2396332 C169.941179,25.6367242 170.135524,26.0902618 170.22764,26.5693072 C170.389722,27.1204781 170.233006,27.7160882 169.820657,28.1160709 C169.727074,28.158981 169.625144,28.1806058 169.522202,28.1793887 C169.486026,28.2698427 169.422717,28.3783875 169.377497,28.4869323 C168.94784,29.2668499 168.94784,30.2125909 169.377497,30.9925085 C169.574059,31.4803265 169.985246,31.8497291 170.49121,31.9930476 C170.997174,32.136366 171.540972,32.0374705 171.964103,31.725186 C172.31783,31.5536646 172.6273,31.3029574 172.868511,30.9925085 C173.121639,30.5488926 173.273009,30.0545498 173.311671,29.5452443 C173.402112,29.020611 173.510641,28.4869323 173.646302,27.9713444 C173.927408,27.0581832 174.332115,26.187783 174.849164,25.3843597 C175.263349,24.640856 175.751163,23.9408458 176.305261,23.294872 C177.311766,22.1611808 178.71184,21.4529568 180.221347,21.3139291 C182.084427,21.0697032 183.875154,21.0697032 185.756323,20.9340222 C187.877091,20.835068 189.990672,20.6176393 192.087177,20.2827533 C192.992471,19.8853411 193.858471,19.4038231 194.673784,18.8445345 C194.791357,18.7812167 195.225473,18.3560829 195.216429,18.6636265 C195.207384,18.9711701 194.782313,19.3691678 194.66474,19.5048488 C194.339153,19.8576195 194.040698,20.2284809 193.760332,20.6083878 L193.760332,20.6536148 C193.606167,20.8502707 193.484071,21.0700759 193.398569,21.3048837 C193.383211,21.4159149 193.383211,21.5285323 193.398569,21.6395635 C193.402867,21.8190502 193.424063,21.9977327 193.461877,22.1732422 L193.461877,22.2546508 C193.502767,22.411467 193.527019,22.5721566 193.53423,22.7340571 L193.53423,22.7883295 C193.539192,22.8394667 193.539192,22.8909642 193.53423,22.9421013 C193.50747,23.0219372 193.486316,23.1035442 193.470921,23.1863272 C193.419954,23.4255712 193.353491,23.6612486 193.271952,23.8918685 C193.184819,24.1345408 193.112336,24.3822276 193.054894,24.6335914 L193.054894,24.7964086 C193.013972,24.9658083 192.986752,25.1382278 192.973497,25.3119965 L192.973497,25.4114959 C192.986716,25.7479322 193.0383,26.0817589 193.127246,26.40649 L193.208643,26.7773515 C193.235775,26.9130325 193.308128,27.0487135 193.308128,27.1934399 C193.356434,27.3990714 193.445632,27.5928739 193.570406,27.7633002 C193.624317,27.8271627 193.703901,27.8636441 193.787464,27.8627996 L193.850773,27.8627996 C194.34294,27.7557331 194.79458,27.5110591 195.15312,27.1572583 L195.415398,26.9582595 L195.460619,26.9582595 L195.551059,26.8949417 L195.6415,26.8406693 C195.682351,26.9041295 195.727687,26.9645864 195.777161,27.0215773 C195.825882,27.081125 195.880416,27.135667 195.939955,27.1843945 C196.008629,27.245847 196.093286,27.2866137 196.184145,27.3019847 L196.28363,27.3019847 C196.488346,27.2827578 196.686142,27.2178464 196.862451,27.1120313 C197.15219,26.9376461 197.406782,26.7106272 197.613109,26.4426716 L197.65833,26.3883992 L197.739726,26.3341268 L197.812079,26.2888998 L198.598914,25.8275843 C198.598914,25.8275843 199.449057,25.3843597 199.503322,25.3391327 C199.746436,25.180906 199.905766,24.9219559 199.937437,24.6335914 C199.923034,24.5476323 199.901866,24.4629453 199.874129,24.3803201 C199.673373,23.836538 199.428361,23.3101401 199.141558,22.8064203 C198.969721,22.6616939 198.815972,22.8335565 198.852148,23.0054191 C198.888324,23.1772818 199.403837,24.6878638 199.403837,24.6878638 L199.195823,24.895908 L199.12347,24.9592258 L198.978765,25.0496798 L198.571782,25.257724 L198.318547,25.3753143 L197.812079,25.6738125 L197.676418,25.7552211 C197.387007,25.3119965 197.133773,24.7059546 196.998112,24.6064552 C196.862451,24.5069557 196.72679,24.5974098 196.72679,24.7692724 C196.872554,25.1956597 197.044724,25.6125549 197.242302,26.0175378 C197.054792,26.2622941 196.835849,26.4812688 196.591128,26.6688066 C196.435113,26.7008863 196.275001,26.6368322 196.184145,26.5059894 C196.166057,26.4788532 195.1079,24.2175029 194.963194,24.1451397 C194.818489,24.0727765 194.691872,24.1451397 194.691872,24.3079569 C194.691872,24.4707741 195.460619,26.2798544 195.460619,26.2798544 C195.38497,26.3161429 195.31238,26.3584929 195.243561,26.40649 C195.017459,26.5512164 194.782313,26.7502153 194.782313,26.7502153 C194.527263,26.9911278 194.216553,27.1651507 193.877905,27.2567577 L193.832685,27.2567577 C193.805005,27.1917751 193.780852,27.1253455 193.760332,27.0577589 C193.724156,26.9130325 193.651803,26.7502153 193.651803,26.5783526 L193.651803,26.5150348 L193.651803,26.3703084 C193.566631,26.0755541 193.515054,25.7721135 193.498054,25.4657683 L193.498054,25.4386321 C193.51162,25.28936 193.535799,25.1412437 193.570406,24.9954074 L193.570406,24.8416356 C193.617337,24.6269845 193.677751,24.4155057 193.751288,24.2084575 C193.842564,23.9448365 193.918065,23.6760139 193.97739,23.4034168 L194.040698,23.1863272 C194.065992,23.1128625 194.084163,23.0371357 194.094963,22.9601921 C194.098444,22.9180521 194.098444,22.8756966 194.094963,22.8335565 C194.087621,22.6383184 194.060347,22.444342 194.013566,22.2546508 C193.97355,22.0884595 193.949325,21.9188582 193.941213,21.7481083 C193.93401,21.6880209 193.93401,21.6272878 193.941213,21.5672003 C194.019298,21.3763098 194.122727,21.1968042 194.248712,21.0335216 C194.501946,20.6897964 194.773269,20.3551165 195.053635,20.0294821 C195.308769,19.8011616 195.528263,19.535901 195.704809,19.2425322 C195.821834,18.876345 195.888765,18.4960009 195.903778,18.111857 C195.968095,17.803315 196.094233,17.5109998 196.274586,17.2525439 C196.680428,16.7324338 197.155064,16.2699008 197.685462,15.8776429 C198.399763,15.2413886 199.396263,15.0283126 200.308245,15.316828 C201.238103,15.5730134 202.209791,15.6406724 203.166173,15.5158269 C204.168508,15.2323892 205.229781,15.2323892 206.232116,15.5158269 C206.783805,15.7510073 207.37167,15.9228699 207.932403,16.1309141 C208.194681,16.2304136 208.529312,16.4113216 208.83681,16.5650934 L209.135265,16.2665952 C209.600966,15.8005455 210.021857,15.2917675 210.392392,14.7469677 C210.523577,14.5669844 210.668731,14.3976133 210.826508,14.2404253 C210.962169,14.0956989 211.215403,13.987154 211.38724,14.0956989 C211.60061,14.2970389 211.684276,14.6003736 211.604298,14.8826488 C211.307596,15.7388474 210.95098,16.5730875 210.537097,17.3791795 L210.636582,17.4244065 C210.708935,17.4696335 213.747745,18.5460363 215.375679,17.5691329 C215.613403,17.4253149 215.84288,17.2682815 216.063029,17.0987721 C216.319495,16.9059894 216.558571,16.6910924 216.777511,16.4565486 C217.366523,15.8395938 217.751707,15.0564838 217.880889,14.2132891 C217.971504,13.400723 217.601793,12.6053793 216.922216,12.1509376 C217.057877,12.3318456 216.659938,12.9650237 216.560453,13.0554777 C216.392486,13.1971944 216.189389,13.2909449 215.972588,13.3268397 L216.596629,15.8052797 L215.891191,16.4565486 L215.104357,13.3811122 C214.604096,13.3999167 214.123279,13.186189 213.802009,12.8022065 C213.337512,12.054339 213.478776,11.0806202 214.13664,10.4956291 L214.317522,10.3961297 C214.564973,10.2503249 214.833418,10.1435414 215.113401,10.0795407 C216.051416,9.87040473 217.034144,10.0604266 217.826624,10.604174 C218.467567,10.9997284 218.991922,11.5584982 219.346029,12.2233008 C219.507318,12.5563755 219.63458,12.9048823 219.725881,13.2635219 C220.09401,14.995598 219.54765,16.7954321 218.278828,18.0304484 Z M182.382882,46.5053717 C182.382882,46.5234625 182.364793,46.6048711 182.437146,46.6048711 L183.549568,46.6048711 C183.612876,46.5958257 183.612876,46.5053717 183.612876,46.5053717 C183.612876,46.5053717 183.359642,45.9445568 182.997879,45.9445568 C182.636116,45.9445568 182.382882,46.5053717 182.382882,46.5053717 Z M181.939722,46.6048711 C182.00303,46.6048711 181.975898,46.5234625 181.975898,46.5234625 C181.975898,46.5234625 181.776928,46.0711924 181.478474,46.0711924 C181.180019,46.0711924 180.981049,46.5234625 180.981049,46.5234625 C180.981049,46.5415533 180.972005,46.6048711 181.035314,46.6048711 L181.939722,46.6048711 Z M193.009673,46.6048711 L193.000629,46.6048711 C193.072982,46.6048711 193.04585,46.5234625 193.04585,46.5234625 C193.04585,46.5234625 192.84688,46.0711924 192.548425,46.0711924 C192.249971,46.0711924 192.051001,46.5234625 192.051001,46.5234625 C192.051001,46.5415533 192.041957,46.6048711 192.105266,46.6048711 L193.009673,46.6048711 Z M194.682828,46.5053717 C194.682828,46.5053717 194.42055,45.9445568 194.058787,45.9445568 C193.697023,45.9445568 193.443789,46.5053717 193.443789,46.5053717 C193.443789,46.5234625 193.425701,46.6048711 193.507098,46.6048711 L194.619519,46.6048711 C194.682828,46.5958257 194.682828,46.5053717 194.682828,46.5053717 Z M202.36125,17.9128582 C202.3965,17.8849408 202.410887,17.8381753 202.397427,17.795268 C202.376878,17.7479991 202.331324,17.7164573 202.279854,17.7138594 C202.234633,17.7138594 202.053752,17.7138594 202.053752,17.7138594 C201.965735,17.4021309 201.818328,17.1103462 201.619636,16.8545462 L201.574416,16.8545462 C201.539248,16.8200703 201.482966,16.8200703 201.447798,16.8545462 C201.352891,17.295728 201.289423,17.7430926 201.257873,18.1932656 C201.631453,18.1242703 202.000053,18.0305961 202.36125,17.9128582 Z M209.931144,17.0897267 L209.931144,17.0987721 C210.320039,16.420367 211.043565,15.045466 211.043565,14.9731028 C211.043565,14.9007396 211.124962,14.7560131 211.043565,14.7650585 C210.962169,14.774104 210.85364,14.9731028 210.808419,15.045466 C210.460164,15.6167851 210.057324,16.1529741 209.605557,16.646502 L209.415631,16.8364554 C209.16682,17.0919147 208.904144,17.3334904 208.628797,17.5600875 C207.714002,18.3192593 206.685474,18.9297507 205.580942,19.3691678 C205.183003,19.5229396 205.092562,19.7490747 205.291532,20.1289815 C205.495377,20.4332915 205.830267,20.6242067 206.195939,20.6445694 C206.287301,20.6458847 206.377516,20.6241055 206.458218,20.5812516 C206.68432,20.4636614 207.588728,19.8485741 207.670124,19.7852563 C208.455045,19.0940772 209.153497,18.3104822 209.750262,17.4515427 C209.786439,17.3882249 209.849747,17.2796801 209.931144,17.1439991 L209.931144,17.0897267 Z M209.813571,2.02008813 C210.377671,2.0949978 210.948993,2.09803719 211.513857,2.02913353 L212.526794,5.93674689 C212.31878,5.91865609 211.468637,5.86438368 211.54099,6.39806235 L211.54099,6.47042556 L211.649519,6.84128702 C211.678818,6.95827378 211.61117,7.07767104 211.495769,7.11264906 C209.084195,7.86477961 206.55581,8.17129539 204.034405,8.01718919 C203.111909,7.95387138 202.831542,7.73678175 202.750146,7.63728233 C202.743203,7.60753074 202.743203,7.57657991 202.750146,7.54682832 L202.008531,4.18193904 C201.993734,4.11132991 202.01351,4.03789696 202.061764,3.98427316 C202.110019,3.93064937 202.180959,3.90327121 202.252721,3.910577 C202.415515,3.910577 202.795366,3.910577 202.795366,3.910577 C204.874662,3.86167193 206.942628,3.5887332 208.963427,3.09649088 L208.909163,2.91558286 C208.88334,2.78721832 208.88334,2.65499514 208.909163,2.5266306 C209.023019,2.14011865 209.424578,1.91521299 209.813571,2.02008813 Z M205.237267,7.22119387 C207.103778,7.20020146 208.960271,6.94493432 210.763199,6.46138016 L209.976364,3.69348737 C208.965594,3.98544649 207.934838,4.20311616 206.892334,4.34475626 C206.44013,5.18597858 205.779912,6.09956411 205.237267,7.22119387 Z" id="path-1"></path>
    </defs>
    <g id="Logo/Full" stroke="none" stroke-width="1" fill="none" fill-rule="evenodd">
        <mask id="mask-2" fill="white">
            <use xlink:href="#path-1"></use>
        </mask>
        <use id="Logo" fill="#231F20" fill-rule="nonzero" xlink:href="#path-1"></use>
        <g id="Color/Black" mask="url(#mask-2)" fill="#323232">
            <rect id="Rectangle" x="0" y="0" width="388" height="132"></rect>
        </g>
    </g>
</svg>